<?xml version="1.0" encoding="utf-8"?>
<svg viewBox="0 0 500 500" xmlns="http://www.w3.org/2000/svg">
  <ellipse style="stroke: rgb(0, 0, 0); fill: rgb(255, 255, 255);" cx="250.453" cy="228.303" rx="243.49" ry="226.294" transform="matrix(0.9999999999999999, 0, 0, 0.9999999999999999, 0, 0)"/>
  <g transform="matrix(0.8206369280815123, 0, 0, 0.7530800104141234, 248.58943917123764, 255.73068999441514)" id="755471" style="">
    <g style="" vector-effect="non-scaling-stroke">
      <g transform="matrix(0.1333 0 0 -0.1333 2.262 -35.8018)">
        <path style="stroke: none; stroke-width: 1; stroke-dasharray: none; stroke-linecap: butt; stroke-dashoffset: 0; stroke-linejoin: miter; stroke-miterlimit: 4; is-custom-font: none; font-file-url: none; fill: rgb(255,0,0); fill-rule: nonzero; opacity: 1;" transform=" translate(-2442.5266, -2842.9472)" d="M 2176 5100 C 1856.817 5070.908 1516 4939 1255 4774 C 1050 4644 815 4431 668 4240 C 426 3926 269 3548 213 3141 C 191 2983 192 2701 214 2545 C 286 2044 494 1612 835 1261 C 1209 876 1679 647 2225 586 C 2326 574 2626 579 2730 594 C 3239 666 3683 889 4037 1251 C 4216 1434 4327 1589 4446 1825 C 4596 2122 4671 2413 4686 2753 C 4715 3437 4437 4092 3920 4556 C 3623 4822 3220 5015 2810 5086 C 2701 5104 2434.645 5123.574 2176 5100 Z M 2573 5055.426 C 3362 5011.426 4054 4552 4406 3835 C 4690 3255 4715 2613 4478 2015 C 4309 1588 3984 1197 3601 960 C 3360 811 3105 711 2825 658 C 2719 638 2671.612 617.064 2437.612 617.064 C 2150.836 617.064 2101 642 1890 695 C 1780 723 1718 745 1600 795 C 1144 990 781 1314 533 1746 C 391 1995 296 2281 259 2575 C 241 2717 243 2999 263 3147 C 351 3784 707 4353 1240 4708 C 1527 4899 1926 5036 2257 5058 C 2322 5062 2382 5059.745 2390 5060.745 C 2398 5061.745 2481 5061.426 2573 5055.426 Z" stroke-linecap="round"/>
      </g>
      <g transform="matrix(0.1333 0 0 -0.1333 1.9871 -294.737)">
        <path style="stroke: none; stroke-width: 1; stroke-dasharray: none; stroke-linecap: butt; stroke-dashoffset: 0; stroke-linejoin: miter; stroke-miterlimit: 4; is-custom-font: none; font-file-url: none; fill: rgb(255,0,0); fill-rule: nonzero; opacity: 1;" transform=" translate(-2439.9382, -4785.4861)" d="M 2317 4898 c -4 -29 -9 -101 -13 -159 c -7 -124 -12 -119 111 -119 c 124 0 171 52 163 182 c -3 58 -8 72 -33 98 c -29 31 -44 35 -156 45 l -67 6 l -5 -53 z m 163 -18 c 40 -22 49 -136 15 -184 c -17 -23 -108 -35 -120 -16 c -4 6 -4 56 0 111 l 7 99 l 40 0 c 22 0 48 -4 58 -10 z" stroke-linecap="round"/>
      </g>
      <g transform="matrix(0.1333 0 0 -0.1333 45.195 -291.7206)">
        <path style="stroke: none; stroke-width: 1; stroke-dasharray: none; stroke-linecap: butt; stroke-dashoffset: 0; stroke-linejoin: miter; stroke-miterlimit: 4; is-custom-font: none; font-file-url: none; fill: rgb(255,0,0); fill-rule: nonzero; opacity: 1;" transform=" translate(-2763.9942, -4762.863)" d="M 2656 4921 c -11 -17 -24 -295 -15 -305 c 5 -5 61 -12 125 -14 l 116 -5 l -4 24 c -3 22 -8 24 -68 27 c -102 4 -110 7 -110 47 c 0 18 6 37 13 42 c 6 4 45 6 85 4 c 71 -3 72 -2 72 22 c 0 21 -6 25 -46 31 c -26 3 -62 6 -81 6 c -33 0 -34 2 -31 33 l 3 32 l 88 3 c 85 3 87 3 87 27 c 0 23 -3 25 -54 25 c -29 0 -80 3 -113 6 c -41 5 -63 3 -67 -5 z" stroke-linecap="round"/>
      </g>
      <g transform="matrix(0.1333 0 0 -0.1333 -77.6327 -278.6673)">
        <path style="stroke: none; stroke-width: 1; stroke-dasharray: none; stroke-linecap: butt; stroke-dashoffset: 0; stroke-linejoin: miter; stroke-miterlimit: 4; is-custom-font: none; font-file-url: none; fill: rgb(255,0,0); fill-rule: nonzero; opacity: 1;" transform=" translate(-1842.7953, -4664.9638)" d="M 1765 4811 c -83 -43 -106 -121 -61 -217 c 33 -71 78 -98 152 -92 c 58 5 93 24 128 72 c 41 54 17 165 -48 225 c -36 34 -116 40 -171 12 z m 129 -59 c 44 -40 61 -127 32 -165 c -17 -22 -72 -38 -103 -31 c -47 12 -90 110 -72 164 c 19 54 98 72 143 32 z" stroke-linecap="round"/>
      </g>
      <g transform="matrix(0.1333 0 0 -0.1333 111.8383 -266.0609)">
        <path style="stroke: none; stroke-width: 1; stroke-dasharray: none; stroke-linecap: butt; stroke-dashoffset: 0; stroke-linejoin: miter; stroke-miterlimit: 4; is-custom-font: none; font-file-url: none; fill: rgb(255,0,0); fill-rule: nonzero; opacity: 1;" transform=" translate(-3263.8283, -4570.4115)" d="M 3233 4655 c -70 -53 -129 -100 -131 -105 c -2 -5 8 -15 21 -21 c 21 -10 30 -8 56 10 l 31 22 l 56 -33 l 56 -33 l -6 -43 c -5 -38 -3 -44 19 -54 c 14 -6 27 -9 30 -6 c 4 4 39 177 60 300 c 3 20 -1 31 -18 43 c -12 8 -27 15 -33 15 c -7 0 -70 -43 -141 -95 z m 124 -9 c -3 -8 -9 -31 -13 -50 c -7 -39 -25 -46 -56 -22 c -25 19 -22 31 15 60 c 35 28 62 34 54 12 z" stroke-linecap="round"/>
      </g>
      <g transform="matrix(0.1333 0 0 -0.1333 -124.9907 -265.1974)">
        <path style="stroke: none; stroke-width: 1; stroke-dasharray: none; stroke-linecap: butt; stroke-dashoffset: 0; stroke-linejoin: miter; stroke-miterlimit: 4; is-custom-font: none; font-file-url: none; fill: rgb(255,0,0); fill-rule: nonzero; opacity: 1;" transform=" translate(-1487.6094, -4563.9364)" d="M 1535 4726 c -18 -13 -18 -17 10 -125 c 16 -61 26 -113 23 -117 c -4 -3 -47 27 -98 67 c -86 68 -92 71 -115 59 c -14 -7 -25 -18 -24 -24 c 0 -6 59 -55 131 -108 c 117 -87 132 -96 153 -86 c 13 6 26 16 29 24 c 5 12 -58 296 -69 315 c -8 12 -18 11 -40 -5 z" stroke-linecap="round"/>
      </g>
      <g transform="matrix(0.1333 0 0 -0.1333 -44.3045 -273.5738)">
        <path style="stroke: none; stroke-width: 1; stroke-dasharray: none; stroke-linecap: butt; stroke-dashoffset: 0; stroke-linejoin: miter; stroke-miterlimit: 4; is-custom-font: none; font-file-url: none; fill: rgb(255,0,0); fill-rule: nonzero; opacity: 1;" transform=" translate(-2092.7245, -4626.7952)" d="M 2076 4647 c -27 -20 -13 -60 17 -51 c 32 9 36 16 26 42 c -10 25 -18 27 -43 9 z" stroke-linecap="round"/>
      </g>
      <g transform="matrix(0.1333 0 0 -0.1333 161.0026 -251.9968)">
        <path style="stroke: none; stroke-width: 1; stroke-dasharray: none; stroke-linecap: butt; stroke-dashoffset: 0; stroke-linejoin: miter; stroke-miterlimit: 4; is-custom-font: none; font-file-url: none; fill: rgb(255,0,0); fill-rule: nonzero; opacity: 1;" transform=" translate(-3632.5587, -4464.9349)" d="M 3571 4616 c -9 -11 -5 -21 23 -47 l 36 -34 l -81 -103 c -66 -84 -79 -105 -69 -117 c 24 -29 46 -14 120 80 c 41 52 80 95 86 95 c 6 0 23 -9 37 -20 c 31 -24 40 -25 58 -4 c 12 15 10 20 -15 38 c -16 12 -58 45 -95 73 c -71 56 -82 61 -100 39 z" stroke-linecap="round"/>
      </g>
      <g transform="matrix(0.1333 0 0 -0.1333 -157.3385 -238.805)">
        <path style="stroke: none; stroke-width: 1; stroke-dasharray: none; stroke-linecap: butt; stroke-dashoffset: 0; stroke-linejoin: miter; stroke-miterlimit: 4; is-custom-font: none; font-file-url: none; fill: rgb(255,0,0); fill-rule: nonzero; opacity: 1;" transform=" translate(-1245, -4365.9963)" d="M 1175 4454 c -47 -41 -85 -80 -85 -85 c 0 -21 32 -21 54 0 c 12 11 29 21 38 21 c 9 0 46 -35 84 -77 c 109 -125 101 -118 118 -103 c 9 7 16 19 16 27 c 0 8 -36 53 -80 100 c -44 47 -80 94 -80 104 c 0 9 12 26 27 37 c 25 18 28 52 3 52 c -5 0 -48 -34 -95 -76 z" stroke-linecap="round"/>
      </g>
      <g transform="matrix(0.1333 0 0 -0.1333 7.3493 -33.1326)">
        <path style="stroke: none; stroke-width: 1; stroke-dasharray: none; stroke-linecap: butt; stroke-dashoffset: 0; stroke-linejoin: miter; stroke-miterlimit: 4; is-custom-font: none; font-file-url: none; fill: rgb(255,0,0); fill-rule: nonzero; opacity: 1;" transform=" translate(-2480.5475, -2823.0707)" d="M 2199 4500 C 1845 4436 1505 4258 1259 4009 C 1174 3923 1064 3785 1035 3730 L 1021 3702 L 1458 3695 L 1895 3688 L 1931 3664 C 1971 3637 2000 3600 2019 3553 C 2041 3498 2088 3502 2108 3560 C 2120 3592 2152 3610 2200 3610 C 2235 3610 2261.09 3568.662 2258.911 3517 C 2256.931 3470.042 2242 3451 2190 3442 C 2122 3431 2123 3403 2195 3349 C 2225 3326 2264 3305 2281 3301 C 2298 3298 2362 3298 2423 3302 C 2485 3306 2541 3308 2548 3305 C 2566 3298 2562 3265 2540 3245 C 2524 3230 2510 3229 2456 3234 C 2407 3240 2385 3238 2361 3226 C 2344 3217 2306 3210 2274 3210 C 2224 3210 2210 3215 2150 3255 L 2082 3300 L 1945 3300 C 1870 3300 1810 3297 1812 3293 C 1814 3288 1832 3253 1852 3214 C 1924 3074 1935 2984 1885 2934 C 1853 2903 1811 2903 1725 2936 C 1687 2950 1629 2964 1595 2967 C 1543 2972 1527 2969 1485 2948 C 1449 2930 1406 2911.372 1332 2912 C 1274.687 2912.486 1218.392 2908.804 1208.392 2901.804 C 1199.392 2894.804 1173.216 2877.707 1145.216 2854.707 L 1084 2808.942 L 935 2804.131 C 829 2807.131 776 2813.716 771 2806.716 C 758 2785.716 779 2563 805 2445 C 866 2170 993 1923 1183 1708 C 1610 1225 2276 1022 2912 1184 C 3468 1325 3932 1757 4114 2303 C 4183 2510 4195 2589 4194 2840 C 4194 3046 4192 3075 4168 3180 C 4025 3805 3581 4278 2971 4456 C 2805 4504 2745 4512 2520 4516 C 2341 4519 2287 4516 2199 4500 Z M 3750 3561 C 3813 3544 3899 3518 3940 3502 L 4015 3473 L 4038 3409 C 4051 3374 4075 3289 4092 3220 C 4118 3109 4122 3072 4127 2889 C 4135 2611 4109 2446 4024 2225 C 3931 1984 3801 1799 3621 1650 C 3346 1423 3030 1266 2740 1213 C 2609 1190 2348 1190 2225 1214 C 2059 1246 1889 1307 1731 1392 C 1655 1432 1487 1545 1464 1571 L 1445 1592 L 1500 1584 C 1530 1579 1623 1575 1705 1576 C 1835 1576 1868 1580 1952 1603 C 2116 1648 2239 1721 2361 1847 C 2448 1936 2495 2006 2556 2134 C 2612 2253 2693 2530 2672 2530 C 2669 2530 2644 2508 2615 2481 C 2485 2358 2283 2386 2193 2540 C 2155 2604 2149 2706 2180 2778 C 2220 2870 2324 2940 2422 2940 C 2446 2940 2450 2944 2450 2968 C 2450 3006 2492 3090 2526 3122 C 2583 3174 2638 3195 2722 3195 C 2796 3195 2829 3183 2816 3162 C 2813 3156 2795 3157 2770 3163 C 2717 3178 2630 3159 2578 3123 C 2530 3090 2491 3026 2487 2975 C 2485 2939 2487 2937 2529 2921 C 2582 2902 2656 2833 2676 2785 C 2684 2766 2694 2750 2698 2750 C 2702 2750 2711 2781 2718 2819 C 2737 2931 2811 3150 2830 3150 C 2834 3150 2858 3132 2883 3110 C 2929 3070 2957 3015 2962 2955 C 2965 2929 2960 2923 2914 2900 C 2817 2852 2772 2799 2755 2718 C 2750 2694 2745 2690 2715 2690 C 2671 2690 2669 2672 2712 2668 C 2742 2665 2744 2662 2755 2610 C 2769 2538 2810 2478 2872 2439 C 2936 2398 3035 2388 3107 2415 C 3277 2480 3334 2688 3218 2824 C 3171 2879 3094 2920 3038 2920 C 2998 2920 2980 2939 2980 2980 C 2980 3026 2929 3097 2852 3157 L 2829 3175 L 2865 3234 C 2990 3442 3155 3558 3375 3594 C 3455 3606 3636 3591 3750 3561 Z M 3103 2884 C 3189 2855 3260 2749 3260 2650 C 3260 2607 3218 2520 3179 2483 C 3133 2440 3082 2420 3015 2420 C 2885 2420 2780 2511 2776 2629 C 2775 2672 2776 2674 2810 2684 C 2865 2700 2956 2795 2971 2853 C 2984 2898 2986 2900 3020 2900 C 3040 2900 3077 2893 3103 2884 Z M 2960 2876 C 2960 2827 2867 2719 2813 2705 C 2759 2692 2764 2735 2823 2813 C 2867 2870 2960 2913 2960 2876 Z" stroke-linecap="round"/>
      </g>
      <g transform="matrix(0.1333 0 0 -0.1333 0.6019 -13.1461)">
        <path style="stroke: none; stroke-width: 1; stroke-dasharray: none; stroke-linecap: butt; stroke-dashoffset: 0; stroke-linejoin: miter; stroke-miterlimit: 4; is-custom-font: none; font-file-url: none; fill: rgb(255,0,0); fill-rule: nonzero; opacity: 1;" transform=" translate(-2429.5738, -2673.5363)" d="M 2335 2886 c -28 -14 -65 -40 -81 -58 c -139 -149 -30 -390 175 -389 c 121 0 211 72 236 188 c 6 32 5 33 -51 58 c -32 14 -67 34 -77 43 c -30 26 -68 90 -81 136 c -10 35 -16 41 -41 44 c -17 1 -52 -8 -80 -22 z" stroke-linecap="round"/>
      </g>
      <g transform="matrix(0.1333 0 0 -0.1333 19.5949 -30.2061)">
        <path style="stroke: none; stroke-width: 1; stroke-dasharray: none; stroke-linecap: butt; stroke-dashoffset: 0; stroke-linejoin: miter; stroke-miterlimit: 4; is-custom-font: none; font-file-url: none; fill: rgb(255,0,0); fill-rule: nonzero; opacity: 1;" transform=" translate(-2571.9846, -2801.5209)" d="M 2480 2890 c 0 -23 29 -79 60 -114 c 35 -39 104 -81 120 -71 c 16 10 -19 89 -58 129 c -47 49 -122 83 -122 56 z" stroke-linecap="round"/>
      </g>
      <g transform="matrix(0.1333 0 0 -0.1333 117.4855 70.4046)"/>
      <g transform="matrix(0.1333 0 0 -0.1333 182.9956 -216.6727)">
        <path style="stroke: none; stroke-width: 1; stroke-dasharray: none; stroke-linecap: butt; stroke-dashoffset: 0; stroke-linejoin: miter; stroke-miterlimit: 4; is-custom-font: none; font-file-url: none; fill: rgb(255,0,0); fill-rule: nonzero; opacity: 1;" transform=" translate(-3797.5, -4200)" d="M 3775 4287 c -60 -52 -110 -99 -110 -105 c 0 -19 124 -162 141 -162 c 32 0 25 31 -20 86 c -25 31 -46 59 -46 63 c 0 4 43 43 95 86 c 52 44 95 84 95 90 c 0 14 -21 35 -34 35 c -6 0 -60 -42 -121 -93 z" stroke-linecap="round"/>
      </g>
      <g transform="matrix(0.1333 0 0 -0.1333 -192.9256 -199.1569)">
        <path style="stroke: none; stroke-width: 1; stroke-dasharray: none; stroke-linecap: butt; stroke-dashoffset: 0; stroke-linejoin: miter; stroke-miterlimit: 4; is-custom-font: none; font-file-url: none; fill: rgb(255,0,0); fill-rule: nonzero; opacity: 1;" transform=" translate(-978.0927, -4068.6313)" d="M 909 4183 c -38 -36 -69 -70 -69 -74 c 0 -4 52 -55 116 -115 l 115 -107 l 22 21 l 21 22 l -42 43 l -42 43 l 35 39 c 53 61 62 90 40 132 c -11 19 -31 41 -46 49 c -53 27 -76 19 -150 -53 z m 129 -15 c 19 -19 14 -44 -14 -77 c -31 -37 -39 -38 -70 -8 c -31 29 -30 51 2 76 c 30 23 64 27 82 9 z" stroke-linecap="round"/>
      </g>
      <g transform="matrix(0.1333 0 0 -0.1333 214.6601 -185.5569)">
        <path style="stroke: none; stroke-width: 1; stroke-dasharray: none; stroke-linecap: butt; stroke-dashoffset: 0; stroke-linejoin: miter; stroke-miterlimit: 4; is-custom-font: none; font-file-url: none; fill: rgb(255,0,0); fill-rule: nonzero; opacity: 1;" transform=" translate(-4035, -3966.6308)" d="M 3967 4065 c -70 -47 -127 -88 -127 -90 c 0 -10 119 -183 131 -190 c 6 -4 18 -1 26 8 c 13 13 9 23 -33 87 c -47 70 -48 73 -29 87 c 50 37 53 36 87 -13 c 61 -87 61 -87 82 -71 c 19 14 19 17 -24 82 l -44 67 l 25 19 c 13 10 27 19 30 19 c 4 0 30 -32 58 -71 c 43 -59 54 -69 66 -59 c 8 7 15 19 15 26 c 0 16 -117 184 -128 184 c -4 0 -64 -38 -135 -85 z" stroke-linecap="round"/>
      </g>
      <g transform="matrix(0.1333 0 0 -0.1333 -217.2242 -160.0059)">
        <path style="stroke: none; stroke-width: 1; stroke-dasharray: none; stroke-linecap: butt; stroke-dashoffset: 0; stroke-linejoin: miter; stroke-miterlimit: 4; is-custom-font: none; font-file-url: none; fill: rgb(255,0,0); fill-rule: nonzero; opacity: 1;" transform=" translate(-795.864, -3775)" d="M 688 3893 c -86 -83 -88 -89 -42 -127 c 21 -17 72 -61 114 -98 c 41 -37 80 -68 87 -68 c 20 0 93 81 114 128 c 24 51 19 89 -19 134 c -48 57 -101 88 -149 88 c -40 0 -50 -5 -105 -57 z m 141 -17 c 15 -8 43 -32 60 -52 c 25 -28 31 -42 26 -62 c -8 -31 -46 -81 -62 -81 c -6 -1 -46 29 -87 65 c -82 73 -84 81 -30 123 c 31 25 55 26 93 7 z" stroke-linecap="round"/>
      </g>
      <g transform="matrix(0.1333 0 0 -0.1333 239.6504 -157.7042)">
        <path style="stroke: none; stroke-width: 1; stroke-dasharray: none; stroke-linecap: butt; stroke-dashoffset: 0; stroke-linejoin: miter; stroke-miterlimit: 4; is-custom-font: none; font-file-url: none; fill: rgb(255,0,0); fill-rule: nonzero; opacity: 1;" transform=" translate(-4222.4207, -3757.7502)" d="M 4277 3882 c -15 -3 -18 -9 -12 -30 c 18 -73 19 -72 -100 -123 c -82 -34 -111 -51 -113 -66 c -7 -45 19 -43 138 8 c 62 27 117 49 120 49 c 4 0 15 -18 25 -40 c 18 -41 29 -47 54 -31 c 11 7 5 30 -34 120 c -26 62 -51 113 -54 115 c -3 1 -14 1 -24 -2 z" stroke-linecap="round"/>
      </g>
      <g transform="matrix(0.1333 0 0 -0.1333 -135.9939 -139.9077)">
        <path style="stroke: none; stroke-width: 1; stroke-dasharray: none; stroke-linecap: butt; stroke-dashoffset: 0; stroke-linejoin: miter; stroke-miterlimit: 4; is-custom-font: none; font-file-url: none; fill: rgb(255,0,0); fill-rule: nonzero; opacity: 1;" transform=" translate(-1405.1599, -3624.2961)" d="M 993 3658 c -6 -7 -18 -28 -27 -45 l -17 -33 l 462 0 c 410 0 460 2 449 15 c -22 26 -117 48 -182 41 c -32 -3 -69 -8 -82 -12 c -20 -5 -25 -2 -28 18 l -3 23 l -281 3 c -217 2 -284 -1 -291 -10 z" stroke-linecap="round"/>
      </g>
      <g transform="matrix(0.1333 0 0 -0.1333 248.6374 -124.5169)">
        <path style="stroke: none; stroke-width: 1; stroke-dasharray: none; stroke-linecap: butt; stroke-dashoffset: 0; stroke-linejoin: miter; stroke-miterlimit: 4; is-custom-font: none; font-file-url: none; fill: rgb(255,0,0); fill-rule: nonzero; opacity: 1;" transform=" translate(-4289.8198, -3508.8598)" d="M 4260 3536 c -126 -43 -143 -55 -118 -88 c 12 -15 25 -12 153 29 c 77 25 144 49 148 53 c 5 4 6 17 2 29 c -9 30 -38 26 -185 -23 z" stroke-linecap="round"/>
      </g>
      <g transform="matrix(0.1333 0 0 -0.1333 -136.1156 -124.6662)">
        <path style="stroke: none; stroke-width: 1; stroke-dasharray: none; stroke-linecap: butt; stroke-dashoffset: 0; stroke-linejoin: miter; stroke-miterlimit: 4; is-custom-font: none; font-file-url: none; fill: rgb(255,0,0); fill-rule: nonzero; opacity: 1;" transform=" translate(-1404.2562, -3509.9864)" d="M 920 3524 c -22 -57 -42 -54 368 -54 c 337 0 380 2 401 17 c 17 11 54 18 115 22 c 76 5 91 9 94 24 c 3 16 -25 17 -483 17 l -485 0 l -10 -26 z" stroke-linecap="round"/>
      </g>
      <g transform="matrix(0.1333 0 0 -0.1333 -245.4723 -98.4195)">
        <path style="stroke: none; stroke-width: 1; stroke-dasharray: none; stroke-linecap: butt; stroke-dashoffset: 0; stroke-linejoin: miter; stroke-miterlimit: 4; is-custom-font: none; font-file-url: none; fill: rgb(255,0,0); fill-rule: nonzero; opacity: 1;" transform=" translate(-584, -3313.113)" d="M 625 3439 c -11 -6 -25 -18 -32 -26 c -11 -14 -14 -14 -28 1 c -21 20 -57 30 -83 22 c -39 -13 -56 -55 -60 -152 l -4 -91 l 53 -6 c 30 -4 105 -7 167 -7 l 112 0 l 0 108 c 0 100 -2 110 -23 130 c -28 27 -75 36 -102 21 z m -80 -75 c 11 -12 15 -30 13 -63 l -3 -46 l -44 -3 l -43 -3 l 7 53 c 10 77 34 98 70 62 z m 144 2 c 7 -8 11 -37 9 -68 l -3 -53 l -42 -3 l -43 -3 l 0 51 c 0 28 5 60 10 71 c 12 22 52 25 69 5 z" stroke-linecap="round"/>
      </g>
      <g transform="matrix(0.1333 0 0 -0.1333 -157.9407 -108.1908)">
        <path style="stroke: none; stroke-width: 1; stroke-dasharray: none; stroke-linecap: butt; stroke-dashoffset: 0; stroke-linejoin: miter; stroke-miterlimit: 4; is-custom-font: none; font-file-url: none; fill: rgb(255,0,0); fill-rule: nonzero; opacity: 1;" transform=" translate(-1240.5412, -3386.4169)" d="M 889 3440 c -12 -8 -40 -91 -33 -101 c 3 -5 160 -9 354 -9 l 349 0 l 35 52 c 20 29 34 53 32 55 c -5 6 -728 8 -737 3 z" stroke-linecap="round"/>
      </g>
      <g transform="matrix(0.1333 0 0 -0.1333 256.9589 -94.9571)">
        <path style="stroke: none; stroke-width: 1; stroke-dasharray: none; stroke-linecap: butt; stroke-dashoffset: 0; stroke-linejoin: miter; stroke-miterlimit: 4; is-custom-font: none; font-file-url: none; fill: rgb(255,0,0); fill-rule: nonzero; opacity: 1;" transform=" translate(-4352.2333, -3287.1439)" d="M 4384 3415 c -36 -15 -54 -55 -54 -122 c 0 -54 -14 -83 -40 -83 c -46 0 -68 91 -30 125 c 39 36 16 79 -30 55 c -65 -35 -59 -175 9 -227 c 27 -21 87 -16 117 10 c 22 20 27 34 35 102 c 4 44 8 81 8 81 c 4 10 37 12 47 3 c 18 -15 17 -79 -1 -103 c -13 -17 -9 -42 11 -65 c 3 -3 18 8 34 24 c 24 23 30 37 30 72 c 0 104 -60 161 -136 128 z" stroke-linecap="round"/>
      </g>
      <g transform="matrix(0.1333 0 0 -0.1333 -165.9432 -90.3353)">
        <path style="stroke: none; stroke-width: 1; stroke-dasharray: none; stroke-linecap: butt; stroke-dashoffset: 0; stroke-linejoin: miter; stroke-miterlimit: 4; is-custom-font: none; font-file-url: none; fill: rgb(255,0,0); fill-rule: nonzero; opacity: 1;" transform=" translate(-1180.5175, -3252.5)" d="M 830 3284 c -6 -14 -11 -40 -13 -57 l -2 -32 l 345 0 l 345 0 l 23 47 c 13 26 21 52 17 58 c -4 6 -124 10 -356 10 l -349 0 l -10 -26 z" stroke-linecap="round"/>
      </g>
      <g transform="matrix(0.1333 0 0 -0.1333 -100.6686 -72.6686)">
        <path style="stroke: none; stroke-width: 1; stroke-dasharray: none; stroke-linecap: butt; stroke-dashoffset: 0; stroke-linejoin: miter; stroke-miterlimit: 4; is-custom-font: none; font-file-url: none; fill: rgb(255,0,0); fill-rule: nonzero; opacity: 1;" transform=" translate(-1670, -3120)" d="M 1640 3120 l -30 -60 l 60 0 c 33 0 60 4 60 9 c 0 17 -43 111 -51 111 c -5 0 -22 -27 -39 -60 z" stroke-linecap="round"/>
      </g>
      <g transform="matrix(0.1333 0 0 -0.1333 -172.4699 -67.3364)">
        <path style="stroke: none; stroke-width: 1; stroke-dasharray: none; stroke-linecap: butt; stroke-dashoffset: 0; stroke-linejoin: miter; stroke-miterlimit: 4; fill: rgb(255, 0, 0); fill-rule: nonzero; opacity: 0.9;" transform=" translate(-1131.5645, -3080)" d="M 801 3151 C 795 3140 787 3100 784 3061 L 777 2990 L 999 2990 C 1212 2990 1237.792 2973.485 1268 3014 C 1294 3048.872 1339 3040 1369 3043 C 1429 3050 1456 3069 1477 3119 C 1489 3147 1489 3154 1478 3161 C 1471 3166 1318 3170 1138 3170 C 826 3170 810 3169 801 3151 Z" stroke-linecap="round"/>
      </g>
      <g transform="matrix(0.1333 0 0 -0.1333 -248.7435 -51.3547)">
        <path style="stroke: none; stroke-width: 1; stroke-dasharray: none; stroke-linecap: butt; stroke-dashoffset: 0; stroke-linejoin: miter; stroke-miterlimit: 4; is-custom-font: none; font-file-url: none; fill: rgb(255,0,0); fill-rule: nonzero; opacity: 1;" transform=" translate(-559.4659, -2960.1278)" d="M 400 3075 c -6 -8 -10 -22 -8 -32 c 3 -16 17 -18 126 -20 c 78 -1 129 -6 138 -14 c 8 -6 14 -29 14 -50 c 0 -59 -22 -69 -156 -69 c -116 0 -132 -6 -118 -45 c 5 -12 29 -15 128 -15 c 146 0 178 13 196 81 c 22 81 -6 151 -67 168 c -60 17 -238 14 -253 -4 z" stroke-linecap="round"/>
      </g>
      <g transform="matrix(0.1333 0 0 -0.1333 263.9432 -47.4104)">
        <path style="stroke: none; stroke-width: 1; stroke-dasharray: none; stroke-linecap: butt; stroke-dashoffset: 0; stroke-linejoin: miter; stroke-miterlimit: 4; is-custom-font: none; font-file-url: none; fill: rgb(255,0,0); fill-rule: nonzero; opacity: 1;" transform=" translate(-4404.616, -2930.5383)" d="M 4244 3075 c -15 -38 1 -45 112 -45 c 59 0 104 -3 100 -7 c -4 -5 -53 -19 -109 -33 c -95 -23 -102 -27 -105 -51 c -4 -35 8 -42 113 -69 c 130 -33 130 -43 0 -39 l -110 4 l 0 -30 l 0 -30 l 154 -3 c 169 -3 171 -2 171 56 c 0 38 -15 47 -138 78 c -40 10 -68 22 -64 26 c 5 5 38 16 73 24 c 127 29 129 30 129 79 c 0 54 -3 55 -183 55 c -113 0 -139 -3 -143 -15 z" stroke-linecap="round"/>
      </g>
      <g transform="matrix(0.1333 0 0 -0.1333 -198.923 -42.6688)">
        <path style="stroke: none; stroke-width: 1; stroke-dasharray: none; stroke-linecap: butt; stroke-dashoffset: 0; stroke-linejoin: miter; stroke-miterlimit: 4; is-custom-font: none; font-file-url: none; fill: rgb(255,0,0); fill-rule: nonzero; opacity: 1;" transform=" translate(-933.1188, -2895)" d="M 777 2953 C 772 2945 766 2865 769 2843 C 770 2833 803 2830 898 2830 C 1042 2830 1042 2830 1076 2905 C 1086 2927 1148.565 2961.814 1150.565 2966.814 C 1152.565 2970.814 1030 2960 941 2960 C 853 2960 779 2957 777 2953 Z" stroke-linecap="round"/>
      </g>
      <g transform="matrix(0.1333 0 0 -0.1333 -250.3388 -14.7502)">
        <path style="stroke: none; stroke-width: 1; stroke-dasharray: none; stroke-linecap: butt; stroke-dashoffset: 0; stroke-linejoin: miter; stroke-miterlimit: 4; is-custom-font: none; font-file-url: none; fill: rgb(255,0,0); fill-rule: nonzero; opacity: 1;" transform=" translate(-547.5, -2685.5975)" d="M 653 2724 c 4 -53 2 -76 -6 -79 c -7 -3 -68 -8 -137 -12 c -125 -8 -125 -8 -125 -33 c 0 -25 1 -25 100 -28 c 55 -2 128 0 163 3 l 62 7 l 0 93 c 0 111 -4 125 -38 125 l -25 0 l 6 -76 z" stroke-linecap="round"/>
      </g>
      <g transform="matrix(0.1333 0 0 -0.1333 262.3918 -0.2117)">
        <path style="stroke: none; stroke-width: 1; stroke-dasharray: none; stroke-linecap: butt; stroke-dashoffset: 0; stroke-linejoin: miter; stroke-miterlimit: 4; is-custom-font: none; font-file-url: none; fill: rgb(255,0,0); fill-rule: nonzero; opacity: 1;" transform=" translate(-4392.9804, -2576.5484)" d="M 4290 2706 c -47 -32 -65 -69 -64 -133 c 0 -89 56 -144 151 -151 c 108 -7 183 56 183 153 c 0 53 -27 104 -69 132 c -49 33 -152 33 -201 -1 z m 169 -51 c 33 -17 41 -33 41 -85 c 0 -30 -6 -43 -27 -60 c -24 -19 -38 -21 -92 -18 c -52 3 -67 8 -82 27 c -36 44 -17 120 35 141 c 33 14 94 11 125 -5 z" stroke-linecap="round"/>
      </g>
      <g transform="matrix(0.1333 0 0 -0.1333 -247.0391 24.7297)">
        <path style="stroke: none; stroke-width: 1; stroke-dasharray: none; stroke-linecap: butt; stroke-dashoffset: 0; stroke-linejoin: miter; stroke-miterlimit: 4; is-custom-font: none; font-file-url: none; fill: rgb(255,0,0); fill-rule: nonzero; opacity: 1;" transform=" translate(-572.2488, -2389.4923)" d="M 627 2523 c -16 -16 -6 -54 17 -65 c 37 -16 54 -64 35 -97 c -20 -35 -55 -51 -115 -51 c -66 0 -104 27 -104 74 c 0 20 8 40 20 51 c 22 20 25 41 10 65 c -7 12 -12 12 -34 1 c -33 -18 -58 -82 -50 -129 c 14 -83 66 -122 162 -122 c 110 0 172 51 172 142 c 0 52 -28 101 -69 123 c -34 17 -35 17 -44 8 z" stroke-linecap="round"/>
      </g>
      <g transform="matrix(0.1333 0 0 -0.1333 230.0379 93.6019)">
        <path style="stroke: none; stroke-width: 1; stroke-dasharray: none; stroke-linecap: butt; stroke-dashoffset: 0; stroke-linejoin: miter; stroke-miterlimit: 4; is-custom-font: none; font-file-url: none; fill: rgb(255,0,0); fill-rule: nonzero; opacity: 1;" transform=" translate(-4150.2964, -1872.9702)" d="M 4115 1920 c -17 -19 -17 -21 -1 -39 c 10 -11 25 -17 37 -14 c 16 5 19 0 19 -27 c 0 -39 23 -36 28 4 c 4 30 -18 70 -47 85 c -14 8 -23 6 -36 -9 z" stroke-linecap="round"/>
      </g>
      <g transform="matrix(0.1333 0 0 -0.1333 219.2248 102.3846)">
        <path style="stroke: none; stroke-width: 1; stroke-dasharray: none; stroke-linecap: butt; stroke-dashoffset: 0; stroke-linejoin: miter; stroke-miterlimit: 4; is-custom-font: none; font-file-url: none; fill: rgb(255,0,0); fill-rule: nonzero; opacity: 1;" transform=" translate(-4069.1984, -1807.1008)" d="M 4036 1854 c -9 -8 -16 -19 -16 -23 c 0 -13 31 -36 48 -36 c 9 0 19 -10 22 -23 c 6 -28 24 -30 28 -3 c 4 26 -23 78 -47 91 c -15 7 -23 6 -35 -6 z" stroke-linecap="round"/>
      </g>
      <g transform="matrix(0.1333 0 0 -0.1333 208.08 132.2345)">
        <path style="stroke: none; stroke-width: 1; stroke-dasharray: none; stroke-linecap: butt; stroke-dashoffset: 0; stroke-linejoin: miter; stroke-miterlimit: 4; is-custom-font: none; font-file-url: none; fill: rgb(255,0,0); fill-rule: nonzero; opacity: 1;" transform=" translate(-3985.6427, -1583.1997)" d="M 3895 1731 c -90 -55 -106 -149 -33 -187 c 35 -18 59 -14 137 23 c 39 18 59 23 70 16 c 26 -17 24 -50 -4 -79 c -23 -23 -32 -25 -69 -20 c -76 12 -92 -43 -19 -63 c 53 -15 117 18 156 81 c 32 52 30 82 -9 122 c -40 39 -68 40 -144 5 c -37 -17 -76 -29 -86 -27 c -28 5 -28 31 1 62 c 22 23 31 27 59 22 c 26 -5 37 -2 52 15 c 18 20 18 21 -1 35 c -26 19 -74 17 -110 -5 z" stroke-linecap="round"/>
      </g>
      <g transform="matrix(0.1333 0 0 -0.1333 -193.5537 126.7316)">
        <path style="stroke: none; stroke-width: 1; stroke-dasharray: none; stroke-linecap: butt; stroke-dashoffset: 0; stroke-linejoin: miter; stroke-miterlimit: 4; is-custom-font: none; font-file-url: none; fill: rgb(255,0,0); fill-rule: nonzero; opacity: 1;" transform=" translate(-973.3612, -1624.4988)" d="M 952 1644 l -35 -35 l 22 -22 c 22 -22 22 -22 37 -3 c 8 11 14 30 14 43 c 0 16 6 23 20 23 c 24 0 27 15 4 24 c -23 9 -23 9 -62 -30 z" stroke-linecap="round"/>
      </g>
      <g transform="matrix(0.1333 0 0 -0.1333 -182.7583 134.5672)">
        <path style="stroke: none; stroke-width: 1; stroke-dasharray: none; stroke-linecap: butt; stroke-dashoffset: 0; stroke-linejoin: miter; stroke-miterlimit: 4; is-custom-font: none; font-file-url: none; fill: rgb(255,0,0); fill-rule: nonzero; opacity: 1;" transform=" translate(-1054.3261, -1565.7326)" d="M 1036 1590 c -41 -37 -45 -55 -15 -70 c 17 -9 23 -8 34 7 c 8 10 12 26 9 35 c -4 12 2 19 21 24 c 14 3 24 11 22 18 c -7 22 -36 16 -71 -14 z" stroke-linecap="round"/>
      </g>
      <g transform="matrix(0.1333 0 0 -0.1333 -177.4039 160.4028)">
        <path style="stroke: none; stroke-width: 1; stroke-dasharray: none; stroke-linecap: butt; stroke-dashoffset: 0; stroke-linejoin: miter; stroke-miterlimit: 4; is-custom-font: none; font-file-url: none; fill: rgb(255,0,0); fill-rule: nonzero; opacity: 1;" transform=" translate(-1094.5, -1371.9344)" d="M 1071 1438 l -92 -113 l 48 -43 c 68 -60 120 -95 132 -87 c 21 12 11 40 -23 63 c -18 12 -43 33 -54 45 l -21 23 l 74 93 c 41 52 75 97 75 100 c 0 11 -23 31 -36 31 c -7 0 -53 -51 -103 -112 z" stroke-linecap="round"/>
      </g>
      <g transform="matrix(0.1333 0 0 -0.1333 178.3823 164.0175)">
        <path style="stroke: none; stroke-width: 1; stroke-dasharray: none; stroke-linecap: butt; stroke-dashoffset: 0; stroke-linejoin: miter; stroke-miterlimit: 4; is-custom-font: none; font-file-url: none; fill: rgb(255,0,0); fill-rule: nonzero; opacity: 1;" transform=" translate(-3762.9088, -1344.8261)" d="M 3700 1505 c -109 -49 -135 -151 -66 -255 c 33 -50 61 -68 117 -76 c 89 -11 179 65 179 153 c 0 55 -39 134 -81 163 c -40 29 -104 35 -149 15 z m 93 -56 c 43 -20 80 -99 70 -151 c -7 -33 -53 -68 -90 -68 c -32 0 -81 48 -97 93 c -19 55 -9 95 28 118 c 36 22 55 24 89 8 z" stroke-linecap="round"/>
      </g>
      <g transform="matrix(0.1333 0 0 -0.1333 -139.8223 181.4067)">
        <path style="stroke: none; stroke-width: 1; stroke-dasharray: none; stroke-linecap: butt; stroke-dashoffset: 0; stroke-linejoin: miter; stroke-miterlimit: 4; is-custom-font: none; font-file-url: none; fill: rgb(255,0,0); fill-rule: nonzero; opacity: 1;" transform=" translate(-1376.3763, -1214.4034)" d="M 1286 1289 c -43 -61 -80 -119 -83 -128 c -3 -12 21 -34 88 -79 c 80 -54 95 -60 107 -48 c 19 19 11 29 -59 76 c -32 23 -59 45 -59 51 c 0 16 31 59 44 59 c 6 0 34 -16 63 -36 c 52 -36 83 -39 83 -10 c 0 13 -26 34 -104 88 c -13 9 9 58 26 58 c 6 0 40 -18 74 -41 c 63 -40 84 -43 84 -11 c 0 16 -157 132 -177 132 c -4 0 -43 -50 -87 -111 z" stroke-linecap="round"/>
      </g>
      <g transform="matrix(0.1333 0 0 -0.1333 150.3729 182.7594)">
        <path style="stroke: none; stroke-width: 1; stroke-dasharray: none; stroke-linecap: butt; stroke-dashoffset: 0; stroke-linejoin: miter; stroke-miterlimit: 4; is-custom-font: none; font-file-url: none; fill: rgb(255,0,0); fill-rule: nonzero; opacity: 1;" transform=" translate(-3552.8208, -1204.261)" d="M 3486 1367 c -16 -12 -13 -21 44 -120 c 66 -114 73 -149 32 -155 c -13 -2 -32 4 -43 14 c -19 17 -21 17 -41 -4 l -22 -22 l 24 -25 c 29 -31 81 -33 127 -5 c 62 37 57 93 -19 232 c -54 98 -68 110 -102 85 z" stroke-linecap="round"/>
      </g>
      <g transform="matrix(0.1333 0 0 -0.1333 -103.8506 199.9812)">
        <path style="stroke: none; stroke-width: 1; stroke-dasharray: none; stroke-linecap: butt; stroke-dashoffset: 0; stroke-linejoin: miter; stroke-miterlimit: 4; is-custom-font: none; font-file-url: none; fill: rgb(255,0,0); fill-rule: nonzero; opacity: 1;" transform=" translate(-1646.1589, -1075.1)" d="M 1591 1222 c -59 -29 -94 -84 -98 -150 c -5 -72 17 -111 82 -142 c 63 -30 115 -23 162 22 c 44 41 63 84 63 142 c 0 54 -34 100 -95 127 c -50 23 -71 23 -114 1 z m 108 -57 c 47 -24 55 -77 20 -135 c -28 -47 -47 -60 -86 -60 c -94 0 -111 123 -27 189 c 31 25 55 26 93 6 z" stroke-linecap="round"/>
      </g>
      <g transform="matrix(0.1333 0 0 -0.1333 113.3031 204.5)">
        <path style="stroke: none; stroke-width: 1; stroke-dasharray: none; stroke-linecap: butt; stroke-dashoffset: 0; stroke-linejoin: miter; stroke-miterlimit: 4; is-custom-font: none; font-file-url: none; fill: rgb(255,0,0); fill-rule: nonzero; opacity: 1;" transform=" translate(-3274.8138, -1041.2081)" d="M 3205 1196 c -42 -18 -83 -69 -91 -111 c -8 -44 10 -119 38 -158 c 60 -83 223 -70 271 23 c 23 44 18 135 -10 182 c -41 71 -131 98 -208 64 z m 142 -85 c 31 -46 32 -125 1 -158 c -33 -36 -98 -32 -132 7 c -33 40 -43 107 -22 148 c 19 37 29 41 86 39 c 38 -2 47 -7 67 -36 z" stroke-linecap="round"/>
      </g>
      <g transform="matrix(0.1333 0 0 -0.1333 -63.6903 214.2219)">
        <path style="stroke: none; stroke-width: 1; stroke-dasharray: none; stroke-linecap: butt; stroke-dashoffset: 0; stroke-linejoin: miter; stroke-miterlimit: 4; is-custom-font: none; font-file-url: none; fill: rgb(255,0,0); fill-rule: nonzero; opacity: 1;" transform=" translate(-1947.3611, -968.291)" d="M 1867 1143 C 1854 1122 1790 865 1795 853 C 1798 845 1822.457 836.658 1834.457 838.658 C 1856.457 841.658 1842.664 820.429 1872.664 926.429 C 1881.664 958.429 1894 1009 1898 1005 C 1902 1002 1919 955 1936 902 C 1962 819 1970 804 1993 796 C 2008 790 2022 789 2025 792 C 2033 799 2100 1050 2100 1071 C 2100 1091 2064 1102 2052 1086 C 2047 1080 2035 1042 2025 1002 C 2016 962 2004 928 2000 925 C 1995 922 1977 966 1960 1022 C 1943 1079 1925 1128 1922 1131 C 1910 1143 1872 1151 1867 1143 Z" stroke-linecap="round"/>
      </g>
      <g transform="matrix(0.1333 0 0 -0.1333 68.8552 218.0962)">
        <path style="stroke: none; stroke-width: 1; stroke-dasharray: none; stroke-linecap: butt; stroke-dashoffset: 0; stroke-linejoin: miter; stroke-miterlimit: 4; is-custom-font: none; font-file-url: none; fill: rgb(255,0,0); fill-rule: nonzero; opacity: 1;" transform=" translate(-2941.457, -939.2335)" d="M 2857 1097 l -89 -21 l 7 -40 c 3 -23 18 -93 34 -156 c 25 -102 31 -115 51 -118 c 37 -6 43 10 29 72 c -21 94 24 102 110 21 c 36 -33 56 -45 79 -45 c 17 0 33 4 36 9 c 8 13 -38 66 -80 92 l -35 21 l 25 27 c 39 40 36 100 -5 135 c -36 31 -46 31 -162 3 z m 117 -53 c 33 -33 16 -56 -58 -78 c -46 -14 -47 -14 -56 9 c -20 53 -17 59 30 72 c 61 16 66 15 84 -3 z" stroke-linecap="round"/>
      </g>
      <g transform="matrix(0.1333 0 0 -0.1333 -21.5338 221.6746)">
        <path style="stroke: none; stroke-width: 1; stroke-dasharray: none; stroke-linecap: butt; stroke-dashoffset: 0; stroke-linejoin: miter; stroke-miterlimit: 4; is-custom-font: none; font-file-url: none; fill: rgb(255,0,0); fill-rule: nonzero; opacity: 1;" transform=" translate(-2263.5299, -912.3984)" d="M 2169 1078 c -8 -19 -43 -300 -38 -304 c 10 -6 157 -27 194 -28 c 23 -1 31 4 33 20 c 3 20 -4 23 -70 34 c -103 17 -99 15 -92 52 c 4 18 10 36 13 41 c 4 4 31 3 60 -3 c 81 -15 91 -14 91 15 c 0 25 3 24 -107 41 c -40 6 -46 15 -33 49 c 9 24 14 26 43 22 c 108 -19 124 -19 131 -1 c 4 9 3 21 -1 25 c -9 9 -221 44 -224 37 z" stroke-linecap="round"/>
      </g>
      <g transform="matrix(0.1333 0 0 -0.1333 16.142 226.6766)">
        <path style="stroke: none; stroke-width: 1; stroke-dasharray: none; stroke-linecap: butt; stroke-dashoffset: 0; stroke-linejoin: miter; stroke-miterlimit: 4; is-custom-font: none; font-file-url: none; fill: rgb(255,0,0); fill-rule: nonzero; opacity: 1;" transform=" translate(-2546.0968, -874.8841)" d="M 2473 1020 c -59 -36 -55 -111 7 -142 c 19 -10 55 -23 80 -30 c 72 -21 65 -78 -11 -78 c -30 0 -42 6 -59 30 c -22 32 -35 36 -60 20 c -25 -16 14 -75 61 -94 c 49 -20 69 -20 117 0 c 42 16 62 47 62 92 c 0 47 -26 70 -101 93 c -75 23 -94 43 -64 65 c 29 21 63 17 87 -11 c 37 -43 84 -24 58 24 c -26 50 -120 66 -177 31 z" stroke-linecap="round"/>
      </g>
      <g transform="matrix(0.1333 0 0 -0.1333 2.2971 294.8281)">
        <path style="stroke: none; stroke-width: 1; stroke-dasharray: none; stroke-linecap: butt; stroke-dashoffset: 0; stroke-linejoin: miter; stroke-miterlimit: 4; is-custom-font: none; font-file-url: none; fill: rgb(255,0,0); fill-rule: nonzero; opacity: 1;" transform=" translate(-2442.7952, -363.7778)" d="M 181 392 c -5 -9 -7 -30 -4 -45 l 5 -27 l 822 -1 c 451 0 1134 -1 1516 -1 c 382 -1 1031 0 1443 0 l 747 2 l 0 39 c 0 26 -5 41 -16 45 c -9 3 -1025 6 -2259 6 c -2132 0 -2245 -1 -2254 -18 z" stroke-linecap="round"/>
      </g>
      <g transform="matrix(0.1333 0 0 -0.1333 2.6022 319.7161)">
        <path style="stroke: none; stroke-width: 1; stroke-dasharray: none; stroke-linecap: butt; stroke-dashoffset: 0; stroke-linejoin: miter; stroke-miterlimit: 4; is-custom-font: none; font-file-url: none; fill: rgb(255,0,0); fill-rule: nonzero; opacity: 1;" transform=" translate(-2445.083, -177.117)" d="M 753 222 L 180 220 L 180 181 L 180 140.601 C 180 140.601 238.64 139.205 342.553 138.87 C 1148.221 136.274 4675.399 128.914 4694 136 C 4713 143 4716 205 4699 216 C 4687 223 1873 227 753 222 Z" stroke-linecap="round"/>
      </g>
    </g>
  </g>
  <g fill="#e50000" stroke="none" style="transform-origin: 2432.07px 2810.84px;" transform="matrix(0.022081004456, -0.000236000007, -0.000219000023, -0.018004000187, -1893.993231280029, -2456.546375660844)">
    <path d="M -6445.211 7073.227 C -6506.718 7044.784 -6543.425 7033.407 -6592.035 7029.614 C -6658.503 7024.874 -6679.337 7028.666 -6809.296 7070.383 C -6888.661 7095.981 -6900.566 7094.085 -6964.057 7038.147 C -6988.859 7016.341 -7019.612 6996.431 -7032.509 6992.638 C -7061.279 6986.001 -7163.461 7003.067 -7248.778 7029.614 C -7350.96 7061.85 -7388.658 7035.303 -7416.436 6908.257 C -7429.332 6849.475 -7429.332 6846.63 -7405.523 6813.447 C -7390.642 6791.64 -7380.722 6765.093 -7380.722 6744.235 C -7380.722 6714.844 -7388.658 6701.571 -7429.332 6663.646 C -7486.872 6608.657 -7501.753 6563.148 -7475.959 6514.794 C -7467.031 6497.728 -7460.086 6472.13 -7460.086 6457.908 C -7460.086 6423.776 -7436.277 6408.607 -7342.031 6383.956 C -7262.667 6363.098 -7186.278 6321.381 -7147.588 6276.82 C -7114.85 6239.844 -7113.858 6185.803 -7145.604 6157.359 C -7173.381 6131.761 -7281.516 6089.096 -7317.23 6089.096 C -7350.96 6089.096 -7475.959 6129.864 -7574.173 6172.529 C -7649.569 6204.765 -7659.49 6206.661 -7757.704 6207.609 C -7869.806 6207.609 -7956.115 6186.751 -7956.115 6159.256 C -7956.115 6135.553 -7930.322 6094.785 -7880.719 6040.743 C -7818.219 5970.583 -7789.45 5914.645 -7807.307 5895.683 C -7823.18 5876.721 -7849.965 5876.721 -7885.679 5893.787 C -7935.282 5918.438 -8159.487 6174.425 -8203.138 6255.962 C -8246.788 6338.447 -8281.51 6387.749 -8312.264 6408.607 C -8324.169 6416.192 -8389.645 6427.569 -8471.986 6436.102 C -8632.699 6452.22 -8670.397 6446.531 -8715.04 6401.97 C -8740.833 6375.423 -8744.802 6365.942 -8744.802 6311.9 C -8744.802 6262.599 -8740.833 6247.429 -8723.968 6231.312 C -8698.175 6205.713 -8540.438 6141.242 -8458.097 6121.332 C -8357.899 6097.629 -8355.915 6095.733 -8371.788 6008.507 L -8384.684 5936.451 L -8306.312 5858.707 C -8224.963 5777.17 -8124.765 5646.332 -8124.765 5621.681 C -8124.765 5613.148 -8153.535 5581.861 -8189.249 5552.47 C -8224.963 5522.13 -8253.733 5489.895 -8253.733 5480.414 C -8253.733 5470.933 -8251.749 5463.348 -8248.772 5463.348 C -8246.788 5463.348 -8198.178 5451.023 -8142.622 5435.853 C -8086.075 5420.683 -8024.567 5405.514 -8005.718 5402.669 C -7960.084 5395.085 -7926.354 5368.538 -7923.377 5341.043 C -7920.401 5303.119 -7867.822 5270.883 -7802.346 5268.039 C -7767.624 5267.091 -7739.847 5260.454 -7730.918 5251.921 C -7717.029 5238.648 -7719.013 5235.803 -7743.815 5223.478 C -7759.688 5215.893 -7803.338 5182.71 -7842.029 5150.474 C -7957.107 5051.871 -7982.901 5036.702 -8034.488 5036.702 C -8088.059 5036.702 -8107.9 5023.428 -8163.455 4951.372 C -8204.13 4900.175 -8234.884 4877.42 -8326.153 4831.911 C -8379.724 4805.365 -8401.549 4807.261 -8515.636 4847.081 C -8554.326 4860.355 -8586.072 4865.095 -8606.905 4862.251 C -8645.596 4854.666 -8722.976 4791.143 -8739.841 4752.271 C -8757.698 4712.45 -8733.889 4657.461 -8670.397 4588.249 C -8594.009 4507.66 -8418.414 4410.006 -8355.915 4414.746 C -8336.074 4416.642 -8140.638 4530.415 -7961.076 4644.187 C -7917.425 4672.63 -7862.862 4716.243 -7839.052 4742.79 C -7788.458 4798.728 -7770.6 4801.572 -7708.101 4761.752 C -7683.299 4746.582 -7656.514 4733.309 -7649.569 4733.309 C -7622.784 4733.309 -7562.268 4781.662 -7514.649 4838.548 C -7489.848 4868.887 -7463.062 4894.486 -7455.126 4894.486 C -7439.253 4894.486 -7387.666 4827.171 -7338.063 4742.79 C -7312.27 4698.229 -7262.667 4644.187 -7160.485 4547.481 C -7016.636 4411.902 -6932.311 4350.275 -6742.828 4246.932 C -6608.9 4172.98 -6527.552 4096.184 -6527.552 4043.09 C -6527.552 4013.699 -6586.083 3911.303 -6612.869 3894.238 C -6647.591 3872.431 -6678.345 3880.964 -6771.598 3937.85 C -6853.939 3987.152 -6878.74 3995.685 -6983.898 4011.802 C -7123.779 4032.661 -7292.428 3983.359 -7385.682 3894.238 C -7407.507 3873.379 -7445.205 3847.781 -7470.007 3836.403 C -7536.475 3806.064 -7553.34 3784.258 -7551.356 3728.32 C -7549.372 3682.811 -7549.372 3665.745 -7549.372 3616.443 C -7549.372 3605.066 -7563.26 3570.934 -7581.117 3541.543 L -7612.863 3488.449 L -7592.03 3473.28 C -7580.125 3464.747 -7558.3 3451.473 -7541.435 3441.992 C -7506.713 3423.978 -7482.904 3392.691 -7477.943 3358.559 L -7474.967 3334.857 L -7787.465 3329.168 C -8114.845 3323.48 -8173.376 3316.843 -8264.645 3272.282 C -8305.32 3253.32 -8351.947 3204.019 -8353.931 3180.316 C -8357.899 3124.378 -8303.336 3025.775 -8224.963 2948.031 C -8149.567 2872.183 -8120.797 2856.065 -8066.234 2856.065 C -8027.544 2856.065 -8026.551 2857.013 -7996.79 2917.691 C -7979.925 2951.823 -7966.036 2981.214 -7966.036 2984.059 C -7966.036 2995.436 -7904.528 3082.661 -7893.616 3086.454 C -7887.663 3088.35 -7842.029 3082.661 -7792.426 3072.232 C -7743.815 3062.751 -7647.585 3046.633 -7579.133 3036.204 C -7510.681 3025.775 -7398.579 3008.709 -7328.143 2997.332 C -7210.088 2979.318 -7198.183 2979.318 -7140.644 2993.54 C -7080.128 3007.761 -7054.335 3026.723 -7053.342 3057.063 C -7053.342 3066.544 -7078.144 3120.586 -7107.906 3177.472 C -7208.104 3368.04 -7220.008 3496.982 -7139.652 3522.581 C -7074.176 3543.439 -7034.493 3469.487 -7072.192 3398.38 C -7117.826 3313.05 -7080.128 3240.995 -7001.755 3264.697 C -6926.359 3288.4 -6839.058 3324.428 -6802.352 3346.234 C -6757.709 3372.781 -6676.36 3415.446 -6668.424 3415.446 C -6665.448 3415.446 -6666.44 3388.899 -6669.416 3356.663 C -6682.313 3227.721 -6649.575 3161.354 -6572.194 3158.51 C -6529.536 3157.562 -6485.885 3167.043 -6366.838 3204.019 C -6254.736 3238.15 -6218.03 3223.929 -6162.474 3122.482 L -6130.728 3063.699 L -6151.562 3023.879 C -6163.466 3002.073 -6203.149 2939.498 -6239.855 2884.508 C -6276.561 2829.518 -6317.235 2762.203 -6329.14 2735.656 C -6355.926 2674.029 -6352.949 2668.34 -6260.688 2627.572 C -6224.974 2610.506 -6170.411 2574.478 -6138.665 2546.983 C -6107.911 2518.54 -6078.149 2495.786 -6073.189 2495.786 C -6067.237 2495.786 -6039.459 2522.333 -6011.681 2554.568 C -5982.912 2587.752 -5926.364 2640.845 -5886.682 2674.029 C -5802.357 2742.292 -5793.429 2754.618 -5764.659 2834.258 C -5743.826 2889.248 -5743.826 2894.937 -5758.707 2928.121 C -5766.643 2948.031 -5789.46 2986.903 -5809.302 3014.398 C -5833.111 3048.53 -5843.032 3073.18 -5841.047 3091.194 C -5838.071 3114.897 -5835.095 3116.793 -5781.524 3119.637 C -5727.953 3122.482 -5723.985 3124.378 -5718.032 3148.081 C -5715.056 3162.302 -5710.096 3180.316 -5708.112 3187.901 C -5706.128 3196.434 -5717.04 3265.645 -5733.905 3342.442 C -5749.778 3419.238 -5763.667 3500.775 -5763.667 3523.529 C -5763.667 3586.104 -5788.468 3632.561 -5852.952 3691.344 C -5937.277 3766.244 -5951.166 3802.272 -5943.229 3929.317 C -5940.253 3987.152 -5932.317 4035.505 -5925.372 4042.142 C -5902.555 4063.948 -5864.857 4053.519 -5817.238 4013.699 C -5791.445 3992.84 -5765.651 3974.826 -5758.707 3974.826 C -5751.762 3974.826 -5734.897 3985.255 -5720.016 3998.529 C -5705.136 4011.802 -5688.271 4023.18 -5681.326 4023.18 C -5674.382 4024.128 -5658.509 4026.024 -5645.612 4026.972 C -5615.85 4029.816 -5565.255 4081.014 -5565.255 4108.509 C -5565.255 4118.938 -5574.184 4143.589 -5585.096 4164.447 C -5608.906 4209.008 -5609.898 4224.177 -5590.057 4240.295 C -5566.247 4259.257 -5513.668 4355.016 -5519.621 4370.185 C -5522.597 4377.77 -5552.359 4394.836 -5584.104 4408.109 C -5631.723 4427.071 -5645.612 4438.449 -5654.541 4462.151 C -5670.413 4503.868 -5683.31 4573.079 -5693.231 4666.942 C -5703.151 4757.959 -5736.881 4859.406 -5787.476 4946.632 C -5874.777 5098.328 -5906.523 5242.44 -5906.523 5487.051 C -5906.523 5734.506 -5871.801 5866.292 -5788.468 5935.503 C -5741.842 5975.324 -5685.294 5976.272 -5612.874 5940.244 C -5551.367 5909.905 -5533.509 5874.825 -5516.644 5757.26 C -5509.7 5712.699 -5500.772 5652.969 -5495.811 5624.526 C -5490.851 5596.082 -5483.907 5538.248 -5480.93 5496.532 C -5476.962 5454.815 -5470.018 5409.306 -5464.065 5395.085 C -5451.169 5362.849 -5401.566 5333.458 -5345.018 5325.873 C -5307.32 5320.185 -5299.384 5323.029 -5278.551 5343.887 C -5254.741 5368.538 -5254.741 5383.707 -5283.511 5474.725 C -5287.479 5487.051 -5278.551 5494.635 -5253.749 5505.065 C -5212.083 5521.182 -5158.511 5595.134 -5158.511 5635.903 C -5158.511 5669.086 -5177.361 5670.035 -5232.916 5638.747 C -5277.558 5614.096 -5287.479 5615.993 -5287.479 5648.228 C -5287.479 5663.398 -5269.622 5682.36 -5230.932 5710.803 C -5171.408 5755.364 -5148.591 5793.288 -5148.591 5847.33 C -5148.591 5888.098 -5162.48 5889.994 -5257.717 5860.603 L -5322.201 5841.641 L -5348.987 5872.929 C -5377.756 5905.164 -5408.51 5961.102 -5450.177 6053.068 C -5479.938 6120.383 -5505.732 6136.501 -5586.089 6140.294 C -5668.429 6144.086 -5723.985 6132.709 -5804.341 6097.629 C -5896.603 6056.861 -5935.293 6016.092 -5977.951 5913.697 C -5996.801 5866.292 -6016.642 5819.835 -6021.602 5809.406 C -6045.411 5759.156 -6052.356 5699.426 -6058.308 5520.234 C -6065.253 5295.534 -6059.3 5262.35 -5985.888 5109.706 C -5921.404 4976.023 -5885.69 4871.732 -5822.198 4643.239 C -5798.389 4556.013 -5791.445 4510.505 -5791.445 4448.878 C -5792.437 4355.016 -5798.389 4335.105 -5848.984 4269.686 C -5910.492 4186.253 -5924.38 4186.253 -6007.713 4270.634 C -6045.411 4308.559 -6080.133 4364.497 -6151.562 4499.127 C -6203.149 4597.73 -6259.696 4693.488 -6278.545 4712.45 C -6368.822 4806.313 -6417.433 4886.901 -6452.155 4998.778 C -6472.988 5066.093 -6523.583 5356.212 -6537.472 5491.791 C -6543.425 5551.522 -6553.345 5639.695 -6558.305 5686.152 C -6580.131 5872.929 -6581.123 5908.008 -6562.274 5914.645 C -6553.345 5918.438 -6512.671 5912.749 -6472.988 5902.32 L -6400.568 5882.41 L -6385.687 5926.97 C -6376.759 5950.673 -6362.87 6006.611 -6354.934 6050.224 C -6336.084 6145.034 -6321.204 6178.218 -6294.418 6182.01 C -6267.632 6186.751 -6262.672 6192.439 -6255.728 6233.208 C -6250.767 6261.651 -6252.752 6271.132 -6270.609 6287.25 C -6288.466 6303.367 -6291.442 6312.848 -6285.489 6346.98 C -6281.521 6369.735 -6267.632 6409.555 -6253.744 6437.05 C -6239.855 6463.597 -6225.966 6502.469 -6222.99 6523.327 C -6219.022 6555.563 -6221.998 6564.096 -6246.799 6588.746 C -6272.593 6613.397 -6278.545 6629.515 -6288.466 6696.83 C -6294.418 6740.443 -6306.323 6817.239 -6314.259 6866.541 C -6322.196 6915.842 -6329.14 6982.209 -6329.14 7013.496 C -6329.14 7080.812 -6337.077 7113.047 -6352.949 7112.099 C -6358.902 7112.099 -6400.568 7094.085 -6445.211 7073.227 Z M -8566.231 6307.16 C -8563.255 6302.419 -8564.247 6297.679 -8570.199 6297.679 C -8575.16 6297.679 -8583.096 6302.419 -8586.072 6307.16 C -8589.048 6312.848 -8588.056 6316.641 -8582.104 6316.641 C -8577.144 6316.641 -8569.207 6312.848 -8566.231 6307.16 Z" style="transform-box: fill-box; transform-origin: 50% 50%; fill: rgb(255, 0, 0);"/>
  </g>
</svg>